<svg xmlns="http://www.w3.org/2000/svg" xmlns:xlink="http://www.w3.org/1999/xlink" width="292" zoomAndPan="magnify" viewBox="0 0 218.87999 36.000001" height="48" preserveAspectRatio="xMidYMid meet" version="1.2"><defs><clipPath id="bc269b2455"><path d="M 12 18 L 28 18 L 28 34.296875 L 12 34.296875 Z M 12 18 "/></clipPath><clipPath id="5f13f32216"><path d="M 12 0.730469 L 28 0.730469 L 28 17 L 12 17 Z M 12 0.730469 "/></clipPath><clipPath id="14af70e9c2"><path d="M 29 0.730469 L 37 0.730469 L 37 8 L 29 8 Z M 29 0.730469 "/></clipPath><clipPath id="0e07c79db6"><path d="M 29 19 L 37 19 L 37 34.296875 L 29 34.296875 Z M 29 19 "/></clipPath></defs><g id="32b6dba5ac"><path style=" stroke:none;fill-rule:nonzero;fill:#292894;fill-opacity:1;" d="M 110.617188 4.230469 L 113.332031 1.515625 L 116.042969 4.230469 L 113.332031 6.941406 Z M 110.617188 4.230469 "/><path style=" stroke:none;fill-rule:nonzero;fill:#292894;fill-opacity:1;" d="M 66.769531 22.066406 L 61.808594 8.503906 L 57.261719 8.503906 L 64.847656 27.105469 L 68.65625 27.105469 L 76.214844 8.503906 L 71.773438 8.503906 Z M 66.769531 22.066406 "/><path style=" stroke:none;fill-rule:nonzero;fill:#292894;fill-opacity:1;" d="M 86.070312 8.226562 C 84.757812 8.199219 83.464844 8.339844 82.1875 8.640625 C 81.109375 8.925781 80.058594 9.300781 79.042969 9.761719 L 80.195312 13.152344 C 81.003906 12.8125 81.832031 12.535156 82.679688 12.3125 C 83.597656 12.089844 84.53125 11.984375 85.476562 12 C 86.945312 12 88.066406 12.335938 88.851562 13.015625 C 89.257812 13.390625 89.5625 13.835938 89.769531 14.347656 C 89.976562 14.863281 90.058594 15.398438 90.023438 15.949219 L 90.023438 16.296875 C 89.28125 16.058594 88.53125 15.871094 87.765625 15.734375 C 86.820312 15.585938 85.871094 15.515625 84.917969 15.527344 C 83.90625 15.519531 82.90625 15.640625 81.925781 15.894531 C 81.0625 16.109375 80.269531 16.484375 79.550781 17.011719 C 78.882812 17.515625 78.363281 18.144531 77.996094 18.898438 C 77.597656 19.746094 77.410156 20.640625 77.4375 21.578125 L 77.4375 21.644531 C 77.410156 22.472656 77.574219 23.261719 77.921875 24.011719 C 78.265625 24.761719 78.761719 25.394531 79.410156 25.914062 C 80.035156 26.40625 80.726562 26.769531 81.492188 26.992188 C 82.3125 27.246094 83.148438 27.371094 84.007812 27.363281 C 85.261719 27.398438 86.453125 27.136719 87.578125 26.582031 C 88.507812 26.109375 89.3125 25.480469 89.992188 24.691406 L 89.992188 26.980469 L 94.191406 26.980469 L 94.191406 16.019531 C 94.191406 13.546875 93.523438 11.632812 92.191406 10.265625 C 90.863281 8.902344 88.824219 8.222656 86.074219 8.226562 M 90.097656 20.285156 C 90.101562 20.847656 89.980469 21.378906 89.730469 21.878906 C 89.476562 22.363281 89.132812 22.769531 88.699219 23.101562 C 88.226562 23.457031 87.707031 23.71875 87.144531 23.890625 C 86.507812 24.082031 85.863281 24.171875 85.203125 24.167969 C 84.28125 24.199219 83.4375 23.964844 82.664062 23.46875 C 82.324219 23.246094 82.058594 22.953125 81.875 22.59375 C 81.6875 22.230469 81.605469 21.847656 81.625 21.441406 L 81.625 21.371094 C 81.613281 20.949219 81.707031 20.550781 81.90625 20.175781 C 82.105469 19.800781 82.386719 19.5 82.742188 19.273438 C 83.703125 18.699219 84.738281 18.441406 85.855469 18.503906 C 86.636719 18.5 87.414062 18.570312 88.183594 18.710938 C 88.832031 18.828125 89.46875 19.003906 90.085938 19.238281 Z M 90.097656 20.285156 "/><path style=" stroke:none;fill-rule:nonzero;fill:#292894;fill-opacity:1;" d="M 111.222656 26.875 L 115.492188 26.875 L 115.496094 8.492188 L 111.222656 8.492188 Z M 111.222656 26.875 "/><path style=" stroke:none;fill-rule:nonzero;fill:#292894;fill-opacity:1;" d="M 128.035156 8.226562 C 126.726562 8.199219 125.429688 8.339844 124.152344 8.640625 C 123.070312 8.925781 122.019531 9.296875 121.003906 9.761719 L 122.15625 13.152344 C 122.972656 12.8125 123.808594 12.535156 124.667969 12.3125 C 125.585938 12.089844 126.519531 11.984375 127.464844 12 C 128.933594 12 130.054688 12.335938 130.839844 13.015625 C 131.242188 13.390625 131.546875 13.835938 131.746094 14.351562 C 131.949219 14.867188 132.03125 15.398438 131.992188 15.949219 L 131.992188 16.296875 C 131.253906 16.058594 130.5 15.871094 129.734375 15.734375 C 128.792969 15.585938 127.84375 15.515625 126.886719 15.527344 C 125.875 15.519531 124.878906 15.640625 123.898438 15.894531 C 123.03125 16.109375 122.238281 16.484375 121.519531 17.011719 C 120.851562 17.515625 120.332031 18.144531 119.964844 18.898438 C 119.566406 19.746094 119.382812 20.640625 119.40625 21.578125 L 119.40625 21.644531 C 119.378906 22.472656 119.542969 23.261719 119.886719 24.011719 C 120.234375 24.761719 120.730469 25.394531 121.375 25.914062 C 122 26.40625 122.695312 26.769531 123.457031 26.992188 C 124.277344 27.246094 125.113281 27.371094 125.972656 27.363281 C 127.222656 27.402344 128.414062 27.144531 129.539062 26.59375 C 130.46875 26.125 131.273438 25.496094 131.953125 24.703125 L 131.953125 26.992188 L 136.148438 26.992188 L 136.148438 16.019531 C 136.148438 13.546875 135.484375 11.632812 134.152344 10.265625 C 132.824219 8.902344 130.785156 8.222656 128.035156 8.226562 M 132.058594 20.285156 C 132.0625 20.847656 131.941406 21.378906 131.691406 21.878906 C 131.4375 22.363281 131.09375 22.769531 130.660156 23.101562 C 130.1875 23.457031 129.667969 23.71875 129.101562 23.890625 C 128.46875 24.082031 127.824219 24.171875 127.160156 24.167969 C 126.242188 24.199219 125.398438 23.964844 124.625 23.46875 C 124.285156 23.246094 124.023438 22.953125 123.839844 22.589844 C 123.65625 22.230469 123.574219 21.84375 123.59375 21.441406 L 123.59375 21.371094 C 123.582031 20.949219 123.679688 20.550781 123.878906 20.175781 C 124.078125 19.800781 124.355469 19.5 124.710938 19.273438 C 125.671875 18.699219 126.710938 18.441406 127.824219 18.503906 C 128.609375 18.5 129.382812 18.570312 130.152344 18.710938 C 130.804688 18.828125 131.4375 19.003906 132.058594 19.238281 Z M 132.058594 20.285156 "/><path style=" stroke:none;fill-rule:nonzero;fill:#292894;fill-opacity:1;" d="M 150.132812 8.121094 C 148.871094 8.089844 147.707031 8.417969 146.644531 9.105469 C 146.183594 9.398438 145.765625 9.746094 145.390625 10.148438 C 145.027344 10.539062 144.695312 10.957031 144.398438 11.398438 L 144.398438 8.511719 L 140.128906 8.511719 L 140.128906 26.964844 L 144.398438 26.964844 L 144.398438 16.566406 C 144.398438 15.125 144.777344 14.003906 145.542969 13.203125 C 145.929688 12.796875 146.382812 12.492188 146.902344 12.28125 C 147.417969 12.070312 147.957031 11.976562 148.519531 12 C 149.0625 11.964844 149.589844 12.054688 150.097656 12.257812 C 150.605469 12.460938 151.042969 12.765625 151.417969 13.164062 C 152.097656 13.949219 152.4375 15.058594 152.4375 16.5 L 152.4375 26.964844 L 156.703125 26.964844 L 156.703125 15.21875 C 156.703125 13.046875 156.136719 11.320312 154.996094 10.042969 C 153.859375 8.765625 152.242188 8.121094 150.148438 8.121094 "/><path style=" stroke:none;fill-rule:nonzero;fill:#292894;fill-opacity:1;" d="M 165.496094 2.347656 L 161.265625 2.347656 L 161.265625 8.296875 L 158.878906 8.296875 L 158.878906 11.261719 L 161.238281 11.261719 L 161.238281 21.84375 C 161.210938 22.722656 161.34375 23.578125 161.628906 24.410156 C 161.855469 25.058594 162.222656 25.613281 162.734375 26.074219 C 163.234375 26.507812 163.804688 26.8125 164.441406 26.988281 C 165.144531 27.183594 165.859375 27.277344 166.585938 27.269531 C 167.296875 27.277344 167.996094 27.195312 168.683594 27.027344 C 169.285156 26.863281 169.855469 26.628906 170.398438 26.324219 L 170.398438 22.871094 C 169.574219 23.292969 168.703125 23.503906 167.777344 23.503906 C 167.144531 23.542969 166.585938 23.363281 166.097656 22.960938 C 165.636719 22.460938 165.441406 21.871094 165.503906 21.195312 L 165.503906 11.261719 L 170.453125 11.261719 L 170.453125 8.324219 L 165.496094 8.324219 Z M 165.496094 2.347656 "/><path style=" stroke:none;fill-rule:nonzero;fill:#292894;fill-opacity:1;" d="M 103.007812 22.523438 C 102.546875 22.023438 102.347656 21.433594 102.414062 20.757812 L 102.414062 2.335938 L 98.144531 2.335938 L 98.144531 21.421875 C 98.121094 22.300781 98.25 23.15625 98.535156 23.988281 C 98.761719 24.640625 99.128906 25.195312 99.644531 25.652344 C 100.144531 26.085938 100.714844 26.390625 101.355469 26.566406 C 102.054688 26.757812 102.769531 26.851562 103.492188 26.847656 C 104.207031 26.859375 104.90625 26.773438 105.59375 26.601562 C 106.195312 26.445312 106.765625 26.214844 107.308594 25.914062 L 107.308594 22.4375 C 106.484375 22.855469 105.609375 23.0625 104.683594 23.066406 C 104.054688 23.105469 103.496094 22.925781 103.007812 22.523438 "/><path style=" stroke:none;fill-rule:nonzero;fill:#292894;fill-opacity:1;" d="M 206.320312 19.324219 C 205.96875 18.742188 205.519531 18.246094 204.976562 17.839844 C 204.40625 17.421875 203.796875 17.082031 203.144531 16.816406 C 202.464844 16.535156 201.769531 16.289062 201.113281 16.082031 C 200.578125 15.917969 200.058594 15.75 199.558594 15.574219 C 199.101562 15.417969 198.660156 15.234375 198.230469 15.015625 C 197.886719 14.847656 197.582031 14.625 197.316406 14.351562 C 197.078125 14.117188 196.964844 13.832031 196.964844 13.5 L 196.964844 13.425781 C 196.964844 12.867188 197.191406 12.425781 197.648438 12.101562 C 198.222656 11.714844 198.859375 11.539062 199.554688 11.582031 C 200.417969 11.59375 201.257812 11.746094 202.070312 12.039062 C 203.015625 12.367188 203.910156 12.792969 204.765625 13.3125 L 206.441406 10.292969 C 205.429688 9.621094 204.347656 9.101562 203.1875 8.738281 C 202.042969 8.367188 200.863281 8.179688 199.660156 8.175781 C 198.78125 8.167969 197.925781 8.296875 197.089844 8.558594 C 196.316406 8.792969 195.617188 9.167969 194.992188 9.675781 C 194.394531 10.164062 193.925781 10.757812 193.59375 11.453125 C 193.242188 12.195312 193.070312 12.972656 193.082031 13.792969 L 193.082031 13.863281 C 193.058594 14.652344 193.234375 15.398438 193.609375 16.097656 C 193.953125 16.695312 194.402344 17.199219 194.957031 17.613281 C 195.519531 18.03125 196.128906 18.359375 196.789062 18.605469 C 197.476562 18.863281 198.160156 19.0625 198.832031 19.269531 C 199.367188 19.429688 199.886719 19.59375 200.386719 19.757812 C 200.84375 19.902344 201.285156 20.074219 201.714844 20.28125 C 202.066406 20.4375 202.371094 20.660156 202.628906 20.945312 C 202.855469 21.207031 202.964844 21.515625 202.960938 21.859375 L 202.960938 21.929688 C 202.96875 22.21875 202.902344 22.492188 202.769531 22.75 C 202.636719 23.007812 202.449219 23.214844 202.210938 23.375 C 201.5625 23.785156 200.855469 23.964844 200.09375 23.917969 C 199.0625 23.902344 198.066406 23.710938 197.105469 23.339844 C 196.003906 22.921875 194.984375 22.355469 194.046875 21.644531 L 192.160156 24.539062 C 193.304688 25.449219 194.566406 26.148438 195.949219 26.628906 C 197.257812 27.085938 198.601562 27.324219 199.988281 27.332031 C 200.902344 27.339844 201.800781 27.214844 202.679688 26.964844 C 203.480469 26.746094 204.210938 26.386719 204.871094 25.886719 C 205.496094 25.398438 205.980469 24.796875 206.320312 24.082031 C 206.691406 23.273438 206.863281 22.425781 206.84375 21.535156 L 206.84375 21.46875 C 206.867188 20.707031 206.691406 20 206.320312 19.339844 "/><path style=" stroke:none;fill-rule:nonzero;fill:#292894;fill-opacity:1;" d="M 182.117188 21.804688 L 177.027344 8.503906 L 172.515625 8.503906 L 180.21875 26.945312 L 178.476562 31.644531 L 182.9375 31.644531 L 191.503906 8.480469 L 187.042969 8.480469 Z M 182.117188 21.804688 "/><g clip-rule="nonzero" clip-path="url(#bc269b2455)"><path style=" stroke:none;fill-rule:nonzero;fill:#292894;fill-opacity:1;" d="M 12.035156 18.472656 L 27.859375 34.296875 L 27.882812 18.476562 Z M 12.035156 18.472656 "/></g><g clip-rule="nonzero" clip-path="url(#5f13f32216)"><path style=" stroke:none;fill-rule:nonzero;fill:#292894;fill-opacity:1;" d="M 27.90625 0.738281 L 12.027344 16.621094 L 27.886719 16.628906 Z M 27.90625 0.738281 "/></g><g clip-rule="nonzero" clip-path="url(#14af70e9c2)"><path style=" stroke:none;fill-rule:nonzero;fill:#292894;fill-opacity:1;" d="M 36.566406 7.734375 L 29.746094 0.730469 L 29.746094 7.734375 Z M 36.566406 7.734375 "/></g><path style=" stroke:none;fill-rule:nonzero;fill:#292894;fill-opacity:1;" d="M 46.371094 17.542969 L 38.511719 9.714844 L 38.5 25.410156 Z M 46.371094 17.542969 "/><path style=" stroke:none;fill-rule:nonzero;fill:#292894;fill-opacity:1;" d="M 29.75 18.476562 L 29.746094 24 L 35.265625 18.480469 Z M 29.75 18.476562 "/><g clip-rule="nonzero" clip-path="url(#0e07c79db6)"><path style=" stroke:none;fill-rule:nonzero;fill:#292894;fill-opacity:1;" d="M 29.742188 26.617188 L 29.742188 34.296875 L 36.648438 27.269531 L 36.664062 19.675781 Z M 29.742188 26.617188 "/></g><path style=" stroke:none;fill-rule:nonzero;fill:#292894;fill-opacity:1;" d="M 29.75 9.621094 L 36.664062 9.621094 L 36.664062 16.621094 L 29.75 16.621094 Z M 29.75 9.621094 "/></g></svg>